<?xml version="1.0" standalone="no"?><svg xmlns="http://www.w3.org/2000/svg" viewBox="0 0 1440 320"><path fill="#0099ff" fill-opacity="1" d="M0,64L17.1,85.3C34.3,107,69,149,103,144C137.1,139,171,85,206,64C240,43,274,53,309,90.7C342.9,128,377,192,411,229.3C445.7,267,480,277,514,277.3C548.6,277,583,267,617,261.3C651.4,256,686,256,720,213.3C754.3,171,789,85,823,69.3C857.1,53,891,107,926,154.7C960,203,994,245,1029,229.3C1062.9,213,1097,139,1131,96C1165.7,53,1200,43,1234,74.7C1268.6,107,1303,181,1337,192C1371.4,203,1406,149,1423,122.7L1440,96L1440,320L1422.9,320C1405.7,320,1371,320,1337,320C1302.9,320,1269,320,1234,320C1200,320,1166,320,1131,320C1097.1,320,1063,320,1029,320C994.3,320,960,320,926,320C891.4,320,857,320,823,320C788.6,320,754,320,720,320C685.7,320,651,320,617,320C582.9,320,549,320,514,320C480,320,446,320,411,320C377.1,320,343,320,309,320C274.3,320,240,320,206,320C171.4,320,137,320,103,320C68.6,320,34,320,17,320L0,320Z"></path></svg>